<svg width="24" height="24" viewBox="0 0 24 24" fill="none" xmlns="http://www.w3.org/2000/svg">
<g id="Property 1=light">
<mask id="mask0_482_270" style="mask-type:alpha" maskUnits="userSpaceOnUse" x="0" y="0" width="24" height="24">
<rect id="Bounding box" width="24" height="24" transform="matrix(-1 0 0 1 24 0)" fill="#D9D9D9"/>
</mask>
<g mask="url(#mask0_482_270)">
<path id="mode_night" d="M15.8293 19.7304C13.6881 20.3041 11.6633 20.04 9.75471 18.9381C7.84615 17.8362 6.60501 16.2146 6.0313 14.0735C5.45758 11.9324 5.72168 9.90752 6.82359 7.99896C7.92549 6.0904 9.54702 4.84926 11.6882 4.27555L12.1953 4.13967C12.3563 4.09653 12.5135 4.07165 12.667 4.06502C12.0341 5.37342 11.6399 6.75158 11.4843 8.19951C11.3288 9.64744 11.4429 11.0878 11.8269 12.5206C12.2108 13.9534 12.8321 15.2579 13.6907 16.434C14.5494 17.6102 15.5799 18.6066 16.7822 19.4232C16.646 19.4943 16.4974 19.5513 16.3364 19.5945L15.8293 19.7304ZM16.3469 21.6622C17.2001 21.4336 18.0041 21.1017 18.7589 20.6665C19.5136 20.2313 20.203 19.6972 20.8271 19.0641C19.097 18.596 17.6029 17.7367 16.3447 16.4864C15.0866 15.2361 14.2246 13.7416 13.7587 12.003C13.2928 10.2643 13.2921 8.53902 13.7565 6.82715C14.221 5.11529 15.0853 3.6241 16.3495 2.3536C15.4925 2.11736 14.6284 1.9995 13.7572 2C12.886 2.00051 12.0237 2.11507 11.1705 2.3437C9.83432 2.70173 8.64655 3.29175 7.60722 4.11376C6.56789 4.93576 5.73003 5.8979 5.09363 7.00017C4.45724 8.10244 4.04293 9.30912 3.85072 10.6202C3.6585 11.9313 3.74141 13.2549 4.09945 14.5911C4.45748 15.9273 5.0475 17.1151 5.86951 18.1544C6.69151 19.1938 7.65365 20.0316 8.75592 20.668C9.85819 21.3044 11.0649 21.7187 12.376 21.9109C13.6871 22.1032 15.0107 22.0202 16.3469 21.6622Z" fill="#2E2E2E"/>
</g>
</g>
</svg>
